<svg xmlns="http://www.w3.org/2000/svg" xml:space="preserve" width="1600" height="250" style="shape-rendering:geometricPrecision;text-rendering:geometricPrecision;image-rendering:optimizeQuality;fill-rule:evenodd;clip-rule:evenodd" viewBox="0 0 1600 249.999"><defs><style>.fil7{fill:none}.fil0{fill:#0e9146}.fil2{fill:#000}.fil6{fill:#fef400}.fil9{fill:#fff}.fil11,.fil5{fill:#000}.fil11{fill-rule:nonzero}</style></defs><g id="Layer_x0020_1"><g id="_275434632"><path id="_273390000" d="M161.21 118.225c-7.44.243-15.446 1.876-21.208 6.892-2.773 2.414-4.36 5.074-5.462 8.554-1.188 3.743-1.723 8.123-2.034 12.031-.17 2.132-.285 4.167-.676 6.28-.426 2.297-3.604 2.186-3.374 4.153.141 1.226.05 2.573 2.844 5.798.928 1.566 2.349 2.334 4.066 2.925 2.921 1.007 9.684 1.092 12.646.285 3.161-.86 6.677-2.916 9.453-4.66 3.427-2.152 7.517-6.54 10.546-10.462 3.028-3.923 6.223-7.963 11.937-10.07 2.075-.764 3.373-.756 5.557-.865 1.028-.054 2.814.163 3.931.38s1.417.301 2.482.621c1.065.321 1.517.444 1.676.479.158.034-.113-.835-.456-1.893-.343-1.057-.85-2.15-1.194-3.053-.543-1.754-1.081-2.34-1.941-3.93-.906-1.675-1.785-2.647-3.097-4.076-1.146-1.246-2.283-2.385-3.645-3.404-2.43-1.82-5.945-3.578-9.44-4.603-3.493-1.025-8.39-1.519-12.61-1.382" class="fil0"/><path id="_273389880" d="M124.774 163.09c-.097-1.924 2.74-1.929 2.822-.208.087 1.837-2.738 1.888-2.822.208m1.03 1.92-.098 5.875c-1.446-1.893-5.249-7.344-4.39-10.123l1.664-3.423c1.188-.017 5.777-.205 6.54.14 1.223.554 1.953 3.067 1.7 4.81l-4.668 8.581-.002-6.018c.685-.462 1.528-.769 1.483-1.975-.082-2.19-3.597-2.257-3.676.017-.052 1.5.958 1.248 1.447 2.115m-4.745-1.456-21.139-.562c7.608-.937 8.738-9.176 12.31-10.184.674-.19 3.86.204 5.006.239 1.501.045 1.532.57 3.248 2.322 1.06 1.083 2.208 1.448 1.121 3.34-.919 1.6-.808 2.95-.546 4.845m12.39-11.35c1.263.03 2.449.126 3.722.084 1.043-.035 2.584-.337 3.429-.315 1.822.05 3.026 2.154 3.935 3.583l8.394 6.652c-.633.525-1.422.852-2.174 1.163-4.203 1.739-10.055 2.855-14.346 1.119l-4.62-2.254c-.174-1.252-.024-1.92-.52-3.081-1.143-2.68-2.372-2.189.342-5.002.662-.687 1.27-1.248 1.838-1.95m-10.427-17.535.848-.016 5.365.002-.002 22.253-6.21-.012zm-36.065 18.386c8.983-.054 11.6-3.404 15.629-3.896 1.024-.125 1.587.549 2.66 1.091l5.656 2.18c-3.478 3.096-5.337 9.553-11.509 9.753-3.101.099-11.57-7.623-12.436-9.128m55.441-1.402c1.877-.838 3.548-1.131 5.393-2.108 2.627-1.394 2.248-1.603 5.44-.288l12.225 3.023c-.66 1.311-8.995 9.174-11.76 9.145-6.05-.063-7.774-6.595-11.297-9.772zm-67.436-9.488c.689-.364 3.102-.964 4.148-1.39 6.01-2.447 8.656-5.8 12.94-1.065 1.78 1.968 2.103 2.087 4.063 3.855 2.754 2.482 3.957 3.163 5.785 4.762l-7.409 2.834c-1.605.508-7.432 1.826-8.82.648l-2.547-2.588c-2.139-2.274-5.443-5.541-8.16-7.055m76.126 5.33c2.454-1.575 3.776-2.933 5.676-4.797 6.533-6.407 6.186-7.74 12.806-4.346 4.106 2.106 5.807 2.292 7.26 2.99-4.84 3.818-3.853 3.3-7.817 7.126-1.946 1.879-1.856 4.838-10.88 1.89-.934-.305-6.575-2.54-7.045-2.863m-91.153-7.039c.579-.695 1.964-1.802 2.843-2.48 5.335-4.116 11.956-8.395 19.14-5.683 2.196.829 5.304 2.841 6.379 4.14l-13.481 4.789c-1.483.267-2.144-.36-3.428-.808-4.79-1.67-7.221-.811-11.453.042m104.356-5.186c1.799-.948 2.948-2.634 6.398-3.897 5.407-1.983 10.9.618 15.113 3.639.83.594 4.961 3.763 5.503 4.639l-7.962-.771c-2.365.365-4.55 2-6.761 1.476-4.325-1.026-7.78-3.774-10.584-4.416-.154-.036-.826-.155-.865-.168-.469-.155-.081-.005-.509-.24zm-105.892 5.202c.557-5.87 4.369-10.314 7.991-13.83 2.347-2.278 4.427-3.426 7.609-1.823 1.691.851 4.131 4.262 5.079 5.86l-11.985 3.266c-2.289.956-8.101 6.2-8.694 6.527m114.7-10.571c.88-1.669 3.187-5.059 4.963-5.912 1.18-.566 3.425-.927 4.496-.249 4.287 2.71 9.857 9.814 10.303 16.034l-3.9-3.423c-4.522-3.567-9.314-6.8-15.862-6.45m-85.254-6.93c1.844-.231 3.55-.469 5.326-.816 2.646-.518 3.709-1.03 5.044-.086 2.724 1.93 4.628 3.03 6.134 6.057 1.774 3.569 1.454 6.552.945 10.764-.616 5.104-.58 5.963.546 10.626l-6.872-4.526c-.926-.719-5.473-4.757-5.65-5.403-.37-1.366 1.173-7.581-4.271-15.021-.39-.533-.917-1.022-1.202-1.596m-15.99-.03c.462-.376 2.617-1.362 3.158-1.584 1.15-.473 2.816-1.197 4.075-1.358l5.318 2.798c1.493.218 2.145-.008 3.01 1.042.472.574 1.259 1.63 1.712 2.354 2.066 3.308 3.805 7.831 3.322 12.714-3.388-2.958-6.351-6.03-10.662-7.556-2.11-.746-1.503-.619-2.643-2.06-2.27-2.867-3.108-5.48-7.695-5.956zm88.262 13.711c-.18-4.098 1.65-8.809 3.446-11.505 4.27-6.42 2.253-.15 9.002-6.065l7.967 3.313c-3.11 1.075-3.887.925-5.736 3.468-1.861 2.562-2.115 3.913-4.285 4.692-2.263.813-4.219 2.094-5.654 3.34l-4.676 4.218zM147.3 148.764c2.647-7.391-1.649-14.14 1.276-21.038 1.356-3.2 3.43-4.42 5.894-6.287.96-.727.924-.637 2.256-.408 2.993.516 4.591.999 7.92 1.145-.763 1.034-1.454 1.893-2.104 3.025-.59 1.029-1.162 2.062-1.646 3.259-.985 2.437-1.629 5.313-1.629 8.192L157.42 141c-1.083 1.06-1.869 1.732-3.08 2.905-1.498 1.45-5.013 3.99-7.04 4.86m-30.047 3.443c-2.644.004-9.155-.69-10.245-2.427-1.875-2.985-1.258-7.478-.823-11.122.5-4.202.738-7.287-1.065-10.871-2.133-4.245-5.362-5.24-6.113-6.332l9.888 2.79c2.16 1.413 4.266 3.916 5.559 6.837 2.188 4.945 2.664 10.643 2.239 16.187-.42 5.489-.717 2.858.56 4.938m17.245-.794c.027-.056.074-.122.102-.159.536-.732.529-.476.7-.887.184-.44-.24-3.151-.306-4.11-.854-12.55 2.894-26.217 19.002-25.605l-.997.824c-6.46 4.804-6.92 8.88-5.921 17.303.337 2.843.811 9.33-1.423 10.79-2.342 1.53-8.01 1.949-11.157 1.845m46.3-29.77c-2.204-1.267-4.98-2.59-7.769-3.362l-3.86-12.065c.088 2.654 1.434 5.146.226 8.095-1.005 2.456-3.828 2.508-6.91 2.29-6.6-.47-12.895-4.873-22.607 1.207-3.41 2.134-7.218 5.863-9.043 9.353-1.302 2.49-1.472 3.835-2.364 6.602l-5.353.039c-1.971-4.898-2.66-7.92-6.644-11.544-2.799-2.548-6.511-5.452-11.736-6.454-6.689-1.281-10.13 1.13-16.06 1.624-9.746.812-6.82-5.839-6.435-10.385-3.436 5.046-5.493 6.604-3.858 12.215l-7.723 3.315c-6.375 3.237-13.18 11.556-13.376 19.794 3.511-1.166 6.02-2.294 9.872-2.006 3.668.274 6.41 1.82 8.644 3.343 1.917 1.307 4.77 3.973 6.341 5.634l5.792 5.972c1.947 1.926 3.915 3.827 6.488 5.493 2.488 1.611 4.487 2.893 7.615 4.157 4.651 1.879 10.192 2.74 15.234 1.169 1.607-.5 2.766-1.217 4.024-1.673.679 1.37 3.615 7.041 4.933 7.3 4.65-5.263 3.947-6.397 5.364-8.639 3.302 1.654 4.853 2.736 8.786 3.018 6.403.46 12.925-2.483 17.701-5.932 3.596-2.597 6.367-5.375 9.241-8.504.523-.569.842-1.082 1.369-1.635.54-.569.89-.826 1.38-1.392 6.182-7.153 13.827-12.077 23.848-7.003-1.363-5.263-1.553-8.322-4.32-12.139-.93-1.286-1.532-1.926-2.56-2.995-1.806-1.876-3.602-3.376-6.24-4.891" style="fill:#1f1a17"/><path id="_273389712" d="m126.177 25 7.152 2.313 6.717 2.532 7.63 3.089 6.522 2.925 6.93 3.326 6.212 3.23 7.636 4.476 6.47 4.228 7.169 5.171 5.002 4.01 6.464 5.578 5.862 5.702 10.417 11.948 9.649 13.641-.003 7.474-.346 7.132-.598 8.167-.785 7.069-1.04 7.579-1.172 6.87-1.923 8.6-2.047 7.422-2.732 8.376-2.291 5.968-3.341 7.834-3.643 7.302-8.214 13.538-10.072 13.338-7.153 2.306-6.931 1.877-8 1.958-7.007 1.444-7.574 1.358-6.935 1.014-8.824.84-7.735.36-8.857.005-6.419-.321-8.529-.738-8.113-1.187-15.494-3.581-15.874-5.399-4.418-6.049-3.937-5.971-4.346-6.957-3.546-6.177-3.64-6.74-3.115-6.242-3.53-8.082-2.734-7.2-2.743-8.372-1.676-6.166-1.93-8.289-1.371-8.036-1.36-15.753.26-16.673 4.422-6.045 4.498-5.568 5.314-6.257 4.815-5.262 5.325-5.523 5.01-4.873 6.642-5.834 6.045-4.81 7.162-5.18 5.384-3.489 7.336-4.386 7.266-3.779 14.653-6.154z" class="fil2"/><path id="_273389568" d="m126.15 28.38 6.102 1.974 6.607 2.49 7.538 3.052 6.429 2.884 6.846 3.285 6.091 3.169 7.497 4.394 6.341 4.143 7.043 5.079 4.892 3.92 6.346 5.48 5.698 5.54 10.222 11.725 8.965 12.674-.003 6.376-.341 7.015-.591 8.068-.773 6.969-1.028 7.485-1.149 6.739-1.889 8.443-2.005 7.275-2.684 8.226-2.24 5.836-3.281 7.692-3.541 7.098-8.061 13.286-9.356 12.39-6.104 1.969-6.817 1.844-7.903 1.935-6.907 1.423-7.481 1.341-6.802.997-8.663.824-7.582.352-8.7.006-6.277-.315-8.374-.724-7.885-1.154-15.205-3.514-14.747-5.016-3.769-5.16-3.873-5.875-4.293-6.872-3.496-6.09-3.595-6.656-3.056-6.122-3.465-7.935-2.68-7.057-2.694-8.223-1.639-6.03-1.895-8.14-1.332-7.81-1.336-15.458.242-15.49 3.773-5.158 4.425-5.476 5.249-6.182 4.747-5.186 5.259-5.455 4.913-4.78 6.522-5.729 5.925-4.713 7.036-5.087 5.264-3.413 7.203-4.306 7.062-3.673 14.379-6.04z" style="fill:#fefefe"/><path id="_273389448" d="m126.123 31.762 5.051 1.634 6.499 2.448 7.444 3.014 6.337 2.842 6.761 3.244 5.972 3.107 7.358 4.313 6.212 4.06 6.916 4.986 4.781 3.833 6.23 5.378 5.532 5.38 10.028 11.501 8.279 11.705-.002 5.28-.335 6.898-.584 7.97-.762 6.867-1.015 7.394-1.126 6.606-1.854 8.286-1.965 7.128-2.635 8.077-2.189 5.704-3.221 7.55-3.438 6.893-7.908 13.032-8.641 11.444-5.054 1.63-6.704 1.815-7.806 1.911-6.806 1.402-7.389 1.324-6.669.977-8.503.809-7.428.345-8.542.006-6.136-.308-8.22-.71-7.658-1.121-14.914-3.448-13.62-4.632-3.12-4.272-3.81-5.777-4.24-6.789-3.445-6-3.55-6.575-2.996-6.002-3.401-7.787-2.626-6.915-2.646-8.074-1.601-5.895-1.86-7.989-1.294-7.585-1.31-15.163.224-14.306 3.124-4.27 4.35-5.386 5.186-6.106 4.677-5.11 5.194-5.389 4.818-4.685 6.4-5.622 5.805-4.619 6.908-4.996 5.146-3.335 7.07-4.226 6.859-3.568 14.103-5.923z" style="fill:#08afe6"/><path id="_273389424" d="M130.315 160.714c-.966-1.12-1.978-2.448-2.512-3.833-.326-.845-.376-1.475-.477-2.347-.055-.474.022-.93.257-1.35.51-.904 1.523-1.276 2.313-1.872.41-.308.717-.648.812-1.168.38-2.05.5-4.123.666-6.197.322-4.038.841-8.339 2.069-12.209 1.145-3.615 2.818-6.41 5.7-8.92 5.91-5.143 14.068-6.84 21.717-7.09a47 47 0 0 1 4.581.08c2.733.174 5.655.561 8.287 1.334 3.332.978 6.928 2.659 9.698 4.733 1.386 1.038 2.586 2.232 3.754 3.504 1.287 1.4 2.301 2.551 3.213 4.238.347.641.724 1.266 1.067 1.908.373.697.668 1.394.927 2.142.356 1.036.857 2.016 1.199 3.067.144.443.291.892.413 1.34.143.532.283 1.224-.363 1.527a.8.8 0 0 1-.54.06c-.566-.123-1.182-.326-1.738-.494a27 27 0 0 0-1.17-.337c-.408-.103-.82-.185-1.232-.265a22 22 0 0 0-1.758-.262c-.632-.071-1.34-.137-1.976-.106-.926.048-1.872.07-2.79.188-.882.112-1.693.324-2.525.63-5.271 1.944-8.273 5.525-11.577 9.804a69 69 0 0 1-3.35 4.018 53 53 0 0 1-3.704 3.748c-1.148 1.043-2.385 2.06-3.701 2.886-2.9 1.822-6.357 3.853-9.672 4.757-.945.257-1.984.382-2.96.463a36 36 0 0 1-3.602.102 34 34 0 0 1-3.606-.245c-.977-.122-2.027-.3-2.959-.62-1.86-.642-3.42-1.503-4.461-3.214" class="fil2"/><path id="_273389112" d="M160.885 116.534c-7.44.243-15.446 1.876-21.208 6.89-2.773 2.415-4.358 5.075-5.462 8.556-1.186 3.743-1.721 8.122-2.033 12.031-.17 2.132-.286 4.166-.677 6.279-.425 2.297-3.602 2.186-3.374 4.153.143 1.227.052 2.574 2.844 5.799.93 1.565 2.349 2.333 4.066 2.924 2.922 1.007 9.684 1.092 12.646.285 3.161-.861 6.677-2.916 9.454-4.66 3.427-2.153 7.518-6.538 10.546-10.462s6.222-7.962 11.937-10.069c2.074-.765 3.374-.756 5.556-.867 1.03-.052 2.814.165 3.931.382 1.117.216 1.417.3 2.483.621 1.064.321 1.517.444 1.676.479.158.034-.114-.835-.456-1.893-.344-1.058-.85-2.152-1.195-3.054-.541-1.754-1.081-2.34-1.941-3.93-.906-1.675-1.785-2.647-3.097-4.075-1.146-1.248-2.283-2.386-3.644-3.406-2.43-1.818-5.946-3.576-9.439-4.602s-8.39-1.52-12.613-1.381" class="fil0"/><path id="_273388968" d="M131.019 150.416c.38.4.444.261 1.235.261l1.028-.07c.617-.023 1.63.076 2.185-.011.41-.065.622-.048 1.045-.052.795-.011 2.758-.56 3.233-.427.131.037.278.1.403.15 2.635 1.073 5.097 6.72 7.825 8.528 2.413 1.599 3.54 1.595 6.447 2.311l.216-.339c-.319-.54-.374-.37-.958-.548-2.977-.913-2.772-.383-5.54-2.201-1.637-1.075-3.806-5.004-5.571-6.743-.258-.254-.427-.54-.72-.786l-.875-.699c.274-.124.742-.21 1.055-.315.335-.111.67-.239 1.013-.357.577-.2 1.434-.554 1.981-.828l3.632-1.917c.339.019.833.15 1.18.204 3.668.578 8.062 3.16 11.936 3.554l5.357.268.214-.414-.235-.313c-.914-.108-2.21.026-3.144-.082-.517-.06-1.097-.031-1.89-.167-3.904-.67-6.563-1.931-10.211-3.154-.696-.234-1.433-.37-2.154-.52.139-.217.545-.428.794-.61.471-.345 4.962-4.464 5.28-4.78l2.883-2.865c.482-.479 1.026-.884 1.51-1.365l1.476-1.397c.806-.094 1.697-.027 2.448.124 1.855.371 3.981 1.35 5.75 2.062l7.442 2.99.335-.214c-.001-.65-.543-.674-1.532-1.07-.619-.248-1.221-.522-1.841-.762-2.498-.966-4.994-1.929-7.472-2.943-1.65-.676-2.53-.85-4.25-.972.598-.754 2.327-1.905 3.14-2.52.932-.705 2.815-1.55 3.91-1.842 3.082-.82 4.36-.765 7.442-.001 2.18.54 4.151 1.436 6.185 2.447.66.328 1.245.672 1.877 1 1.366.708 4.055 2.54 5.12 3.507.505.458 1.025.885 1.508 1.365.748.743.593.677 1.507 1.395l.26-.274v-.081c-.027-.258-.126-.366-.325-.562-.505-.501-.976-1.092-1.51-1.57-2.138-1.924-4.626-3.713-7.248-5.008-2.02-.997-3.485-1.765-5.664-2.486-1.6-.53-3.332-.962-5.019-1.084-.65-.048-1.34.022-1.991.07.55-.837 1.08-1.707 1.606-2.566.554-.905 1.037-1.657 1.809-2.432.6-.605 1.834-1.295 2.678-1.499.622-.15 1.224-.178 1.842-.284.979-.17.719-.024 1.677-.446l.01-.223-.237-.242c-.312-.154-3.57.449-4.005.621-2.939 1.164-4.082 3.554-5.627 6.073-.332.541-.516 1.143-1.111 1.284-3.329.787-5.008 2.142-7.578 4.134l-3.694 3.356c0-1.872-.011-3.604.291-5.373.376-2.194 1.069-4.395 2.183-6.29.61-1.04 2.792-3.961 3.573-5.057l-.343-.34c-.539.145-2.3 2.743-2.696 3.334-.929 1.384-1.574 2.17-2.224 3.794-.753 1.879-1.023 3.419-1.374 5.388-.226 1.267-.09 4.75-.164 5.158-.07.379-3.689 3.699-4.238 4.246-.48.477-1.044.895-1.51 1.364-.453.457-.97.908-1.476 1.33-.529.442-1.029.873-1.58 1.296l-3.62 2.133c.23-.96.884-1.75.96-3.822l.07-1.09c-.003-.438.07-.71.07-1.16l.002-1.777c-.01-.264-.065-.274-.075-.54-.014-.379.02-.785.006-1.164l-.195-3.423c-.11-.692-.013-3.814-.014-4.761-.001-.689.118-1.488.246-2.144.232-1.185.915-2.193 1.606-3.178.315-.45.795-.875 1.1-1.296.511-.705 4.043-3.8 4.96-4.643l-.242-.33c-.606-.016-.733.462-1.176.785-.338.248-.632.552-.976.804-.593.437-1.37 1.138-1.897 1.662-1.204 1.197-2.315 2.328-3.211 3.835-1.163 1.96-1.165 3.555-1.165 5.87 0 .817-.098 2.78.028 3.452.1.536.004 1.105.095 1.678.037.228.016.626.014.873l.134 2.46c.09.764.03 1.827-.06 2.591l-.078 1.698c-.024.216-.09.542-.126.761-.184 1.15-.4 1.603-.83 2.654-.306.746-.114.59-.847.932-2.655 1.24-5.638 1.891-8.56 1.999l-1.713.07c-.622 0-1.123.07-1.715.069-.58-.001-1.202-.187-1.305.442z" class="fil5"/><path id="_273388848" d="m193.948 137.908.862 2.24-2.252-.631z" class="fil2"/><path id="_273388752" d="M122.032 160.714c.966-1.12 1.98-2.448 2.513-3.833.326-.845.376-1.475.476-2.347a2.2 2.2 0 0 0-.256-1.35c-.509-.904-1.524-1.276-2.314-1.872-.408-.308-.715-.648-.811-1.168-.38-2.05-.5-4.123-.666-6.197-.323-4.038-.841-8.339-2.068-12.209-1.146-3.615-2.818-6.41-5.702-8.92-5.909-5.143-14.068-6.84-21.715-7.09a47 47 0 0 0-4.582.08c-2.734.174-5.655.561-8.286 1.334-3.332.978-6.929 2.659-9.699 4.733-1.387 1.038-2.586 2.232-3.754 3.504-1.286 1.4-2.301 2.551-3.213 4.238-.347.641-.724 1.266-1.068 1.908a14.5 14.5 0 0 0-.926 2.142c-.357 1.036-.857 2.016-1.198 3.067-.144.443-.292.892-.414 1.34-.144.532-.283 1.224.363 1.527.212.1.381.094.538.06.569-.123 1.184-.326 1.74-.494.388-.118.777-.236 1.17-.337.407-.103.82-.185 1.231-.265a22 22 0 0 1 1.759-.262c.632-.071 1.34-.137 1.976-.106.926.048 1.87.07 2.791.188.881.112 1.692.324 2.524.63 5.271 1.944 8.274 5.525 11.577 9.804a69 69 0 0 0 3.351 4.018 53 53 0 0 0 3.703 3.748c1.147 1.043 2.386 2.06 3.701 2.886 2.9 1.822 6.357 3.853 9.672 4.757.945.257 1.985.382 2.96.463 1.195.098 2.404.126 3.603.102a34 34 0 0 0 3.605-.245c.976-.122 2.027-.3 2.96-.62 1.86-.642 3.418-1.503 4.459-3.214" class="fil2"/><path id="_273388440" d="M91.461 116.534c7.441.243 15.448 1.876 21.208 6.89 2.773 2.415 4.36 5.075 5.464 8.556 1.186 3.743 1.72 8.122 2.032 12.031.17 2.132.285 4.166.677 6.279.425 2.297 3.603 2.186 3.375 4.153-.143 1.227-.052 2.574-2.846 5.799-.928 1.565-2.348 2.333-4.065 2.924-2.922 1.007-9.684 1.092-12.647.285-3.16-.861-6.676-2.916-9.453-4.66-3.427-2.153-7.517-6.538-10.546-10.462s-6.222-7.962-11.937-10.069c-2.074-.765-3.373-.756-5.556-.867-1.029-.052-2.813.165-3.93.382-1.118.216-1.418.3-2.483.621s-1.518.444-1.676.479c-.159.034.113-.835.455-1.893.344-1.058.85-2.152 1.195-3.054.542-1.754 1.081-2.34 1.94-3.93.907-1.675 1.786-2.647 3.098-4.075 1.145-1.248 2.283-2.386 3.644-3.406 2.43-1.818 5.947-3.576 9.44-4.602s8.39-1.52 12.611-1.381z" class="fil0"/><path id="_273388296" d="M121.328 150.416c-.378.4-.443.261-1.235.261l-1.027-.07c-.616-.023-1.63.076-2.185-.011-.41-.065-.622-.048-1.046-.052-.794-.011-2.757-.56-3.232-.427-.13.037-.277.1-.404.15-2.634 1.073-5.096 6.72-7.823 8.528-2.413 1.599-3.54 1.595-6.448 2.311l-.216-.339c.319-.54.373-.37.958-.548 2.976-.913 2.772-.383 5.54-2.201 1.637-1.075 3.806-5.004 5.57-6.743.259-.254.428-.54.72-.786l.876-.699c-.275-.124-.742-.21-1.055-.315-.335-.111-.67-.239-1.013-.357-.576-.2-1.434-.554-1.982-.828l-3.63-1.917c-.34.019-.835.15-1.18.204-3.67.578-8.063 3.16-11.937 3.554l-5.358.268-.214-.414.236-.313c.914-.108 2.211.026 3.144-.082.517-.06 1.097-.031 1.891-.167 3.904-.67 6.562-1.931 10.21-3.154.696-.234 1.433-.37 2.154-.52-.138-.217-.545-.428-.794-.61-.471-.345-4.962-4.464-5.28-4.78-.964-.96-1.919-1.906-2.883-2.865-.481-.479-1.027-.884-1.51-1.365l-1.477-1.397c-.805-.094-1.696-.027-2.447.124-1.855.371-3.981 1.35-5.75 2.062l-7.443 2.99-.334-.214c.001-.65.542-.674 1.53-1.07.62-.248 1.222-.522 1.843-.762 2.498-.966 4.994-1.929 7.472-2.943 1.651-.676 2.531-.85 4.25-.972-.598-.754-2.327-1.905-3.14-2.52-.933-.705-2.814-1.55-3.912-1.842-3.08-.82-4.358-.765-7.44-.001-2.18.54-4.151 1.436-6.185 2.447-.661.328-1.245.672-1.877 1-1.366.708-4.054 2.54-5.12 3.507-.505.458-1.025.885-1.508 1.365-.748.743-.593.677-1.507 1.395l-.261-.274v-.081c.028-.258.127-.366.326-.562.505-.501.977-1.092 1.51-1.57 2.138-1.924 4.626-3.713 7.248-5.008 2.02-.997 3.485-1.765 5.664-2.486 1.6-.53 3.332-.962 5.019-1.084.65-.048 1.34.022 1.991.07-.55-.837-1.08-1.707-1.606-2.566-.555-.905-1.037-1.657-1.808-2.432-.602-.605-1.836-1.295-2.68-1.499-.62-.15-1.223-.178-1.84-.284-.98-.17-.72-.024-1.678-.446l-.01-.223.237-.242c.312-.154 3.57.449 4.005.621 2.939 1.164 4.082 3.554 5.627 6.073.332.541.516 1.143 1.111 1.284 3.328.787 5.008 2.142 7.578 4.134l3.694 3.356c0-1.872.01-3.604-.292-5.373-.374-2.194-1.068-4.395-2.182-6.29-.609-1.04-2.792-3.961-3.572-5.057l.342-.34c.539.145 2.301 2.743 2.697 3.334.928 1.384 1.573 2.17 2.224 3.794.752 1.879 1.022 3.419 1.373 5.388.226 1.267.089 4.75.164 5.158.07.379 3.689 3.699 4.238 4.246.48.477 1.044.895 1.51 1.364.453.457.97.908 1.476 1.33.53.442 1.029.873 1.58 1.296l3.62 2.133c-.231-.96-.884-1.75-.96-3.822l-.07-1.09c.002-.438-.07-.71-.07-1.16l-.001-1.777c.009-.264.063-.274.074-.54.014-.379-.02-.785-.006-1.164l.195-3.423c.11-.692.012-3.814.014-4.761.001-.689-.118-1.488-.246-2.144-.232-1.185-.915-2.193-1.606-3.178-.315-.45-.795-.875-1.1-1.296-.51-.705-4.042-3.8-4.959-4.643l.241-.33c.606-.016.733.462 1.176.785.338.248.631.552.976.804.593.437 1.37 1.138 1.897 1.662 1.205 1.197 2.315 2.328 3.211 3.835 1.164 1.96 1.165 3.555 1.165 5.87 0 .817.098 2.78-.027 3.452-.1.536-.005 1.105-.097 1.678-.037.228-.014.626-.013.873l-.134 2.46c-.09.764-.03 1.827.06 2.591l.077 1.698c.025.216.091.542.127.761.184 1.15.399 1.603.83 2.654.306.746.115.59.847.932 2.655 1.24 5.638 1.891 8.56 1.999l1.712.07c.624 0 1.124.07 1.716.069.58-.001 1.202-.187 1.304.442z" class="fil5"/><path id="_273388224" d="m58.4 137.908-.863 2.24 2.252-.631z" class="fil2"/><path id="_273388008" d="M126.308 62.658c-3.198-1.746-4.64-5.757-4.64-9.207 0-3.56 1.531-8.169 4.57-10.26l.46-.318.462.318c3.037 2.091 4.568 6.7 4.568 10.26 0 3.45-1.442 7.462-4.64 9.207l-.39.213zm8.705 48.557c-.38-2.202.107-4.487 1.041-6.493 1.081-2.32 2.787-4.352 4.793-5.937a19.5 19.5 0 0 1 2.182-1.49c1.943-1.145 4.133-2.002 6.35-2.434 1.966-.38 4.133-.454 6.068.127l.537.162.037.557c.132 2.003-.43 4.086-1.248 5.902-.923 2.05-2.259 3.977-3.819 5.599-.61.634-1.263 1.23-1.953 1.775-2.008 1.585-4.386 2.776-6.903 3.299-2.178.45-4.528.405-6.6-.459l-.41-.171zm.293-14.934c-.496-2.059-.18-4.248.578-6.203.876-2.257 2.358-4.282 4.154-5.902a18 18 0 0 1 1.966-1.541c3.134-2.136 7.756-3.825 11.582-2.944l.546.127.074.554c.513 3.869-1.623 8.277-4.063 11.173a18 18 0 0 1-1.733 1.796c-1.796 1.62-3.966 2.893-6.31 3.541-2.032.561-4.256.663-6.27-.027l-.42-.143zm-3.126-12.257c-.613-1.767-.526-3.719-.03-5.5.574-2.051 1.697-3.95 3.13-5.521a16 16 0 0 1 1.587-1.514c2.565-2.14 6.463-4.004 9.893-3.557l.556.072.128.545c.783 3.348-.702 7.385-2.594 10.132a16 16 0 0 1-1.36 1.718c-1.433 1.572-3.224 2.869-5.221 3.635-1.736.668-3.681.944-5.511.51l-.432-.102zm-3.943-12.43c-.507-1.48-.431-3.109-.01-4.6.483-1.703 1.421-3.276 2.618-4.579 2.235-2.434 6.172-4.627 9.563-4.174l.556.076.126.544c.642 2.791-.597 6.139-2.18 8.423q-.52.748-1.136 1.42c-1.196 1.302-2.688 2.375-4.35 3.005-1.455.553-3.081.776-4.61.408l-.433-.104zm-11.712 40.23c-2.073.863-4.423.909-6.6.457-2.518-.522-4.896-1.713-6.904-3.298a19 19 0 0 1-1.952-1.776c-1.561-1.621-2.897-3.548-3.82-5.598-.818-1.817-1.38-3.899-1.248-5.902l.037-.557.537-.162c1.935-.581 4.102-.507 6.068-.127 2.219.431 4.407 1.289 6.35 2.433.76.448 1.49.944 2.182 1.491 2.007 1.585 3.712 3.618 4.792 5.937.936 2.006 1.421 4.291 1.043 6.493l-.075.437zm-.333-14.969c-2.014.69-4.238.588-6.268.027-2.345-.648-4.516-1.92-6.312-3.54a18 18 0 0 1-1.732-1.797c-2.44-2.896-4.578-7.304-4.064-11.173l.074-.554.548-.127c3.825-.88 8.446.808 11.581 2.944a18 18 0 0 1 1.966 1.541c1.796 1.62 3.279 3.645 4.154 5.902.758 1.955 1.073 4.144.577 6.203l-.104.431zm3.072-12.31c-1.83.433-3.774.157-5.511-.51-1.996-.767-3.787-2.064-5.22-3.636a16 16 0 0 1-1.361-1.717c-1.891-2.748-3.377-6.785-2.594-10.133l.128-.545.556-.072c3.43-.447 7.328 1.418 9.893 3.557.562.468 1.094.974 1.587 1.514 1.433 1.572 2.556 3.47 3.129 5.52.497 1.783.585 3.734-.03 5.5l-.144.419zm3.945-12.428c-1.53.368-3.155.145-4.61-.408-1.663-.63-3.155-1.703-4.351-3.004a13 13 0 0 1-1.134-1.421c-1.585-2.284-2.823-5.632-2.182-8.423l.126-.544.557-.076c3.39-.453 7.326 1.74 9.562 4.174 1.197 1.303 2.136 2.876 2.618 4.58.421 1.49.498 3.119-.01 4.599l-.144.419z" class="fil2"/><path id="_273387744" d="M126.698 61.952c2.473-1.35 4.22-4.647 4.22-8.501s-1.747-7.895-4.22-9.598c-2.472 1.703-4.219 5.744-4.219 9.598s1.747 7.151 4.219 8.5z" class="fil6"/><path id="_273387576" d="M135.811 111.08c3.541 1.475 8.554.534 12.685-2.728s6.984-8.533 6.716-12.593c-3.92-1.177-9.729.394-13.86 3.656-4.13 3.263-6.187 7.903-5.541 11.664z" class="fil6"/><path id="_273387408" d="M136.095 96.093v.002c3.424 1.17 8.085-.025 11.77-3.35 3.686-3.326 6.042-8.463 5.538-12.268v-.001c-3.763-.866-9.135.97-12.82 4.297-3.686 3.324-5.331 7.82-4.488 11.32" class="fil6"/><path id="_273387240" d="M132.947 83.76c3.076.73 7.024-.701 9.943-3.902s4.528-7.863 3.765-11.127h-.001c-3.343-.436-7.853 1.613-10.773 4.813s-3.965 7.246-2.934 10.216" class="fil6"/><path id="_273387072" d="M129.005 71.334v.001zc2.522.608 5.766-.555 8.172-3.173 2.405-2.618 3.74-6.439 3.123-9.12v-.001c-2.743-.368-6.451 1.3-8.856 3.919-2.405 2.617-3.276 5.935-2.439 8.375" class="fil6"/><path id="_273386904" d="M116.211 111.08c-3.54 1.475-8.554.534-12.685-2.728-4.13-3.263-6.983-8.533-6.716-12.593 3.92-1.177 9.729.394 13.86 3.656s6.187 7.903 5.541 11.664z" class="fil6"/><path id="_273386760" d="M115.929 96.093v.002h-.001c-3.424 1.17-8.085-.025-11.77-3.35-3.686-3.326-6.042-8.463-5.538-12.268v-.001h.001c3.762-.866 9.134.97 12.819 4.297 3.686 3.324 5.331 7.82 4.489 11.32" class="fil6"/><path id="_272254672" d="M119.076 83.76h-.001c-3.076.73-7.023-.701-9.943-3.902-2.918-3.2-4.528-7.863-3.764-11.127 3.344-.436 7.854 1.613 10.773 4.813s3.966 7.246 2.935 10.216" class="fil6"/><path id="_272254720" d="M123.018 71.334v.001zc-2.522.608-5.766-.555-8.17-3.173-2.407-2.618-3.741-6.439-3.125-9.12v-.001h.001c2.742-.368 6.45 1.3 8.855 3.919 2.406 2.617 3.276 5.935 2.439 8.375" class="fil6"/><path id="_271519952" d="m184.03 142.746-.182-.022-7.866 12.708" class="fil7"/><path id="_271519664" d="m68.43 142.746.184-.022 7.866 12.708" class="fil7"/><path id="_271522040" d="M81.463 165.078a71 71 0 0 1-7.912-7.49l-4.524 2.767-10.949-17.688 11.728-1.365.264.468a64.7 64.7 0 0 0 11.081 14.375c12.014 11.735 28.003 18.304 44.86 18.304 16.858 0 32.846-6.568 44.86-18.302a64.8 64.8 0 0 0 11.083-14.377l.264-.468 11.726 1.365-10.948 17.688-4.525-2.768a71 71 0 0 1-7.911 7.491l2.945 4.577-19.691 12.517-3.579-5.56a70.6 70.6 0 0 1-12.756 3.353v5.865h-22.935v-5.867a71 71 0 0 1-12.756-3.352l-3.579 5.561-19.69-12.517z" class="fil2"/><path id="_271520096" d="M126.012 175.256c-24.31-.08-45.487-13.397-56.648-33.091l-2.577.3-7.353.855 9.859 15.926 4.411-2.698a70.4 70.4 0 0 0 8.998 8.487l-.164-.13-2.9 4.506 18.325 11.649 3.495-5.43-.098-.037a70 70 0 0 0 13.994 3.685v5.747h21.315v-5.746a70 70 0 0 0 13.897-3.649l3.494 5.43 18.326-11.65-2.9-4.505q-.78.619-1.577 1.215a70.5 70.5 0 0 0 10.413-9.576l-.004.004 4.412 2.698 9.858-15.926-7.352-.855-2.576-.3c-11.163 19.694-32.339 33.01-56.648 33.091" style="fill:#da251d"/><path id="_271517912" d="M122.61 156.605c-.01-.75.32-2.64.347-3.475l.206-5.185c.03-1.005-.023-10.027-.112-10.606-.08-.51.02-1.004-.058-1.512-.13-.84-.095-1.89-.232-2.909-.249-1.853-2.49-7.055-3.597-8.702-1.692-2.518-3.784-4.38-6.202-6.183-2.5-1.865-5.365-3.278-8.444-3.889-3.958-.784-7.04-.381-10.9.616-2.66.687-8.125 1.698-10.567.323-1.53-.862-2.062-2.502-1.967-4.187.074-1.346.492-4.041.687-5.523-.435.39-2.276 3.136-2.706 3.792-1.763 2.693-2.167 4.618-1.371 7.696.266 1.029.596 1.254 1.455 1.828 1.775 1.186 2.13 1.693 4.26 2.314 1.13.33 1.905.223 3.033.261.926.032.107.169 1.481-.02 2.667-.367 4.368-.698 7.019-1.212.898-.175 2.166-.194 3.094-.196 1.515-.005 6.832 1.243 8.14 1.734 3.337 1.25 5.223 3.145 6.913 6.158 2.146 3.83 3.202 8.805 3.206 13.186.002 2.022.013 2.817-.133 4.781l-.285 2.998c-.07.57.126.544.506 1.001.645.776 2.579 2.774 3.109 3.461.217.281 2.905 3.288 3.118 3.45" class="fil2"/><path id="_271519064" d="M136.28 131.237c.152.217.167.222.448.138l.003-.36c-.186.1-.231.047-.451.222" class="fil5"/><path id="_271519136" d="M72.997 146.472c.197.197.098.164.388.148-.027-.196.004-.265-.148-.455-.154.354.11.126-.24.307" class="fil5"/><path id="_271519208" d="M129.413 156.605c.01-.75-.321-2.64-.348-3.475l-.206-5.185c-.03-1.005.023-10.027.112-10.606.08-.508-.02-1.004.058-1.512.131-.84.095-1.89.232-2.908.249-1.854 2.49-7.056 3.597-8.703 1.692-2.518 3.783-4.38 6.202-6.183 2.5-1.865 5.365-3.278 8.444-3.889 3.958-.784 7.04-.381 10.9.616 2.659.687 8.125 1.698 10.566.323 1.531-.862 2.063-2.502 1.97-4.187-.076-1.346-.494-4.041-.69-5.523.435.39 2.277 3.136 2.707 3.792 1.763 2.693 2.168 4.618 1.37 7.696-.265 1.029-.594 1.254-1.454 1.828-1.775 1.186-2.13 1.693-4.26 2.314-1.13.33-1.906.223-3.033.261-.925.032-.107.169-1.482-.02-2.667-.367-4.367-.698-7.017-1.212-.898-.175-2.167-.194-3.095-.196-1.516-.005-6.832 1.243-8.14 1.734-3.337 1.25-5.223 3.145-6.913 6.158-2.146 3.83-3.202 8.805-3.206 13.186-.002 2.022-.013 2.817.132 4.781l.286 2.998c.07.57-.126.544-.506 1.001-.645.776-2.579 2.774-3.11 3.461-.216.281-2.903 3.288-3.116 3.45" class="fil5"/><path id="_273073000" d="M115.742 130.786c-.151.217-.165.222-.448.138l-.003-.36c.186.1.231.047.451.222" class="fil5"/><path id="_273072904" d="M179.026 146.02c-.197.198-.097.165-.389.149.028-.197-.003-.265.15-.455.153.354-.11.126.239.306" class="fil5"/><path id="_273072832" d="M129.78 156.999c1.411 1.522 2.013 3.767 2.204 5.773.148 1.529-1.819 4.586-2.686 5.776-.78 1.07-1.756 2.304-2.796 3.133l-.493.395-.492-.396c-1.037-.835-2.011-2.06-2.792-3.132-.867-1.19-2.832-4.246-2.687-5.776.194-2.009.794-4.252 2.205-5.777v-22.998h7.537z" class="fil2"/><path id="_273072568" d="M126.012 157.264h3.106v-.002c1.283 1.259 2.138 3.278 2.208 5.573.136.842-.916 3.064-2.564 5.328-.94 1.291-1.895 2.347-2.673 3.006l-.078.063-.077-.063c-.777-.659-1.731-1.715-2.673-3.006-1.649-2.264-2.7-4.486-2.564-5.328.07-2.295.925-4.314 2.209-5.573v.002z" class="fil9"/><path id="_273072448" d="M122.905 134.655h6.212v22.241h-6.212z" class="fil9"/><ellipse id="_273072280" cx="126.011" cy="163.014" rx="1.518" ry="1.509" style="fill:#006cb1"/><path id="_273072064" d="M126.012 161.159a1.86 1.86 0 0 1 1.866 1.854c0 .512-.209.975-.547 1.311v.002a1.87 1.87 0 0 1-1.319.543c-.515 0-.981-.208-1.32-.543v-.002a1.845 1.845 0 0 1 0-2.622 1.86 1.86 0 0 1 1.32-.543m1.028.833a1.45 1.45 0 0 0-1.028-.424 1.453 1.453 0 0 0-1.455 1.445c0 .4.163.762.425 1.023h.001c.262.261.626.423 1.029.423s.765-.162 1.028-.423a1.44 1.44 0 0 0 0-2.044" class="fil11"/><rect id="_273072112" width=".427" height="6.775" x="125.798" y="164.651" class="fil2" rx=".165" ry=".165"/><path id="_273071920" d="M348.199 224.086c5.157 2.54 23.11-.8 28.846-3.13 7.746-3.146 14.802-7.025 20.761-13.006 14.408-14.458 19.628-27.281 19.628-47.922 0-45.036.084-89.84-.244-134.871-2.638-.735-10.88 1.35-13.844 2.348-3.184 1.07-8.081 3.75-10.792 5.888-6.608 5.21-11.413 11.548-14.122 19.65-3.318 9.92-2.084 20.905-2.084 31.288v67.152c0 10.914.5 23.017.005 33.782-.638 13.868-6.31 24.713-17.15 32.9-1.568 1.181-3.467 2.428-5.22 3.324-1.606.82-4.488 1.695-5.784 2.597z" style="fill:#ed1e23"/><path id="_273071032" d="M264.97 169.958c2.172-2.752 2.937-12.085 19.362-23.036 17.031-11.357 45.227-19.805 65.574-20.674 5.898-.253 12.343-.207 15.112-6.453l.917-20.162c-6.048-1.708-31.622 2.534-38.728 4.312-12.265 3.069-20.842 6.395-31.948 11.992-13.207 6.655-27.362 19.751-31.191 34.723-1.082 4.228-1.564 15.68.902 19.298" style="fill:#e5eb14"/><path id="_273071272" d="M284.659 197.959c.48-3.64-3.644-12.37 11.224-22.387 12.33-8.305 31.982-13.548 47.128-14.71 2.198-.17 6.482-.23 8.366-.584 4.708-.88 8.236-3.86 9.284-8.618l-.015-17.433c-5.609-1.585-28.217 2.597-34.74 4.232-18.291 4.583-40.197 13.17-48.682 31.061-6.241 13.16 5.315 27.847 7.435 28.439" style="fill:#4f4b4c"/><path id="_273071392" d="M263.424 131.621c.482-.133 7.34-8.456 9.194-9.848 14.047-10.545 18.698-14.852 38.086-21.315a179 179 0 0 1 31.987-7.474c5.837-.812 10.147-1.115 12.462-7.474l.206-19.249c-4.954-1.398-27.615 3.071-33.88 5.094-9.894 3.195-18.53 6.497-27.384 12.08-8.156 5.14-15.138 11.013-20.835 18.632-5.328 7.128-11.667 20.524-9.836 29.554z" style="fill:#277f39"/><path id="_273071440" d="M345.514 224.167c-3.279-1.615-13.193-1.446-22.456-7.976-8.233-5.803-8.237-12.92-.001-18.724 6.728-4.743 15.055-6.552 23.089-7.83 4.176-.666 7.527-2.764 8.77-6.692l.443-14.533c-2.48-.7-15.393.986-18.704 1.554-13.18 2.257-35.633 8.641-40.264 22.393-1.753 5.205.247 11.916 3.416 16.164 3.394 4.55 6.298 6.653 11.128 9.624 8.607 5.292 24.684 8.03 34.58 6.02z" style="fill:#4cb2e8"/><path id="_275430360" d="m841.454 102.502 58.065.046-.04 72.451 36.734-.041.015-72.473 58.832.01c-.76-31.107-28.05-27.354-62.627-27.354l-91.12.04z" class="fil2"/><path id="_275429472" d="m795.15 138.157-.02-22.49c.576-22.44-5.016-40.107 36.494-40.668l.053 59.174c0 22.368 4.993 40.038-36.26 40.663v.005h-67.49v-.005c-29.58-.448-35.382-9.66-36.297-23.083v-14.498c.721-14.14 5.658-23.91 36.358-24.325l.022 25.227z" class="fil2"/><path id="_275430216" d="M1041.2 113.208h-.013l.013-38.209c-29.229.346-35.54 9.127-36.694 22.06v66.018l.01 11.774 36.684-.092z" class="fil2"/><path id="_275431536" d="M1116.6 62.59V25.804h-12.691v36.224q0 4.899-2.008 7.108-2.005 2.21-5.542 2.21-2.97 0-5.42-1.487-2.448-1.484-4.859-4.137l-7.79 8.676q2.89 3.452 7.349 5.943 4.456 2.49 11.043 2.49 4.416 0 8.112-1.244 3.695-1.246 6.303-3.776 2.61-2.53 4.057-6.305 1.446-3.775 1.446-8.916m60.717-5.06V25.804h-12.367V58.01q0 6.749-3.214 10.122-3.211 3.373-8.915 3.373-5.702 0-8.915-3.493-3.212-3.494-3.213-10.404V25.804h-12.367v32.128q-.001 12.45 6.506 18.715 6.504 6.264 17.828 6.265 5.623 0 10.2-1.567 4.58-1.565 7.79-4.739 3.214-3.173 4.941-7.91 1.726-4.74 1.726-11.166m61.2 24.498-13.734-20.08q5.38-2.007 8.713-6.305t3.333-11.125v-.16q0-8.755-5.58-13.655-5.583-4.9-15.622-4.9h-25.7v56.225h12.368V64.036h9.718l12.046 17.992zM1224.3 45.16q0 3.615-2.448 5.782-2.45 2.17-7.028 2.17h-12.529V36.967h12.287q4.578 0 7.15 2.008 2.568 2.01 2.568 6.025zm71.803 12.37V25.803h-12.369V58.01q0 6.749-3.213 10.122t-8.915 3.373-8.915-3.493q-3.211-3.495-3.212-10.403V25.804h-12.368v32.128q0 12.45 6.504 18.715 6.506 6.264 17.83 6.265 5.624 0 10.2-1.567 4.579-1.566 7.79-4.738 3.213-3.174 4.94-7.912 1.727-4.739 1.728-11.165m53.246 7.87v-.16q0-3.694-1.163-6.345-1.166-2.65-3.454-4.62-2.289-1.966-5.623-3.373-3.331-1.405-7.588-2.53a180 180 0 0 1-5.984-1.686q-2.369-.723-3.734-1.526-1.366-.804-1.888-1.807-.522-1.005-.522-2.37v-.16q0-2.089 1.807-3.494 1.808-1.407 5.42-1.407 3.615 0 7.23 1.486 3.614 1.486 7.389 4.057l6.425-9.317a33 33 0 0 0-9.517-5.301Q1332.966 25 1326.782 25q-4.337 0-7.951 1.204-3.613 1.205-6.225 3.454a15.8 15.8 0 0 0-4.055 5.34q-1.445 3.093-1.445 6.95v.16q-.001 4.177 1.324 6.987a12.84 12.84 0 0 0 3.735 4.7q2.409 1.887 5.863 3.172t7.71 2.33q3.533.882 5.742 1.686 2.21.802 3.454 1.606 1.244.803 1.687 1.727.441.925.441 2.128v.161q0 2.49-2.128 3.895-2.127 1.407-5.983 1.407-4.818 0-8.875-1.847-4.056-1.849-7.911-4.98l-7.308 8.753q5.059 4.581 11.243 6.788 6.184 2.21 12.61 2.209 4.577 0 8.352-1.165 3.776-1.164 6.506-3.373t4.257-5.461q1.525-3.254 1.524-7.43m65.537 16.627-24.094-56.626h-11.404l-24.095 56.626h12.61l5.14-12.61h23.774l5.139 12.61zm-22.488-23.534h-14.938l7.469-18.232zm81.117 23.534V25.804h-12.207v34.618l-26.343-34.618h-11.404v56.224h12.207V46.285l27.226 35.743zm-347.036 26.185V96.807h-46.583v11.406h17.108v44.82h12.368v-44.82zm52.283 44.82v-11.005h-30.52V130.22h26.504v-11.003h-26.504v-11.406h30.118V96.807h-42.405v56.225zm62.164 0-23.934-32.37 22.89-23.856h-14.939l-22.808 24.579v-24.58h-12.369v56.226h12.369v-17.188l6.505-6.748 17.427 23.936zm57.424 0V96.806h-12.207v34.62l-26.343-34.62h-11.405v56.225h12.208v-35.744l27.226 35.744zm70.756-28.113v-.161q0-6.025-2.209-11.284-2.207-5.262-6.184-9.157-3.975-3.896-9.437-6.186-5.46-2.288-11.967-2.289-6.504 0-12.006 2.29-5.501 2.288-9.477 6.265t-6.224 9.237q-2.25 5.26-2.25 11.285v.16q0 6.024 2.21 11.286 2.207 5.259 6.184 9.157 3.975 3.895 9.436 6.184t11.968 2.289q6.505 0 12.006-2.29 5.502-2.288 9.478-6.264t6.223-9.237q2.25-5.262 2.249-11.285m-12.93.16q0 3.615-1.246 6.788-1.244 3.172-3.452 5.582-2.21 2.41-5.34 3.775-3.134 1.365-6.829 1.365-3.774 0-6.866-1.405a17.1 17.1 0 0 1-5.382-3.815q-2.287-2.41-3.533-5.623-1.244-3.213-1.244-6.827v-.161q0-3.614 1.244-6.788 1.245-3.171 3.454-5.582t5.3-3.775q3.092-1.365 6.868-1.365 3.694 0 6.825 1.406 3.133 1.405 5.423 3.815 2.289 2.409 3.532 5.623 1.245 3.212 1.245 6.827zm64.33 27.952v-11.245h-28.028v-44.98h-12.369v56.225zm66.58-28.112v-.161q0-6.025-2.207-11.284-2.209-5.262-6.186-9.157-3.974-3.896-9.437-6.186-5.46-2.288-11.965-2.289-6.506 0-12.007 2.29-5.501 2.288-9.476 6.265-3.977 3.976-6.226 9.237-2.248 5.26-2.248 11.285v.16q0 6.024 2.208 11.286 2.21 5.259 6.184 9.157 3.977 3.895 9.437 6.184t11.967 2.289 12.006-2.29q5.502-2.287 9.478-6.264t6.225-9.237q2.247-5.262 2.247-11.285m-12.93.16q0 3.615-1.244 6.788t-3.454 5.582-5.34 3.775q-3.134 1.365-6.827 1.365-3.775 0-6.867-1.405a17.1 17.1 0 0 1-5.381-3.815q-2.289-2.41-3.534-5.622-1.245-3.214-1.245-6.828v-.161q0-3.614 1.245-6.788 1.245-3.171 3.455-5.582 2.207-2.41 5.3-3.775 3.091-1.365 6.866-1.365 3.695 0 6.827 1.406t5.421 3.815 3.534 5.623q1.245 3.212 1.245 6.827zm75.014 20v-24.417h-24.417v10.683h12.45v8.031q-4.739 3.375-11.646 3.375-3.774 0-6.867-1.326a16.1 16.1 0 0 1-5.38-3.735q-2.289-2.41-3.535-5.662-1.244-3.254-1.244-7.11v-.16q0-3.614 1.244-6.788 1.245-3.171 3.455-5.54a17 17 0 0 1 5.14-3.776q2.93-1.406 6.304-1.406 2.409 0 4.417.402 2.008.4 3.735 1.124a21 21 0 0 1 3.333 1.767q1.606 1.045 3.212 2.41l7.791-9.397a37 37 0 0 0-4.499-3.294 27 27 0 0 0-4.978-2.41q-2.651-.963-5.743-1.486-3.092-.521-6.867-.522-6.424 0-11.806 2.29-5.381 2.288-9.315 6.265-3.937 3.976-6.146 9.237-2.208 5.26-2.208 11.285v.16q0 6.266 2.168 11.567 2.17 5.3 6.065 9.157 3.894 3.855 9.316 6.023 5.421 2.169 12.007 2.169 7.71 0 13.693-2.61 5.984-2.61 10.321-6.306m24.817 7.952V96.807h-12.368v56.225zm-477.144 71.005V167.81h-12.368v56.226zm64.01 0V167.81h-12.208v34.62l-26.342-34.62h-11.406v56.226h12.21v-35.744l27.225 35.744zm56.3-44.98V167.81h-42.807v56.226h12.367v-21.768h26.825v-11.244h-26.825v-11.968zm67.142 16.867v-.162q0-6.024-2.209-11.284t-6.184-9.156q-3.976-3.898-9.437-6.186t-11.967-2.288q-6.505 0-12.007 2.288-5.5 2.29-9.476 6.265-3.975 3.976-6.224 9.237-2.25 5.26-2.25 11.286v.16q0 6.024 2.21 11.286 2.207 5.26 6.182 9.156 3.977 3.897 9.437 6.185 5.464 2.289 11.967 2.288 6.507 0 12.007-2.288 5.501-2.29 9.479-6.266 3.975-3.975 6.223-9.237 2.249-5.26 2.249-11.284zm-12.93.16q0 3.615-1.246 6.787-1.244 3.174-3.452 5.583-2.21 2.41-5.342 3.775-3.13 1.365-6.827 1.365-3.774 0-6.866-1.405a17.1 17.1 0 0 1-5.382-3.816q-2.287-2.41-3.533-5.622-1.245-3.214-1.245-6.827v-.162q0-3.614 1.245-6.786 1.245-3.173 3.454-5.582 2.209-2.411 5.3-3.775 3.092-1.365 6.866-1.366 3.696 0 6.827 1.406 3.133 1.406 5.421 3.815 2.291 2.409 3.534 5.622 1.245 3.213 1.245 6.828zm72.523 27.953-13.734-20.082q5.38-2.008 8.714-6.304 3.332-4.297 3.333-11.125v-.16q0-8.756-5.582-13.655-5.58-4.9-15.621-4.9h-25.7v56.226h12.367v-17.992h9.718l12.048 17.992zm-14.216-36.869q0 3.614-2.45 5.783-2.448 2.17-7.027 2.17h-12.53v-16.145h12.289q4.578 0 7.148 2.008t2.57 6.025zm79.913 36.869V167.81h-13.332l-14.778 23.776-14.778-23.776h-13.331v56.226h12.126V187.57l15.662 23.776h.32l15.823-24.017v36.708zm68.267 0-24.095-56.627h-11.404l-24.095 56.627h12.61l5.14-12.611h23.773l5.14 12.61zm-22.488-23.535h-14.94l7.47-18.233zm71.8 6.908v-.16q0-3.696-1.165-6.347-1.165-2.649-3.452-4.618-2.291-1.968-5.623-3.373-3.334-1.406-7.59-2.531a180 180 0 0 1-5.983-1.687q-2.37-.721-3.735-1.526-1.365-.802-1.888-1.807-.521-1.004-.522-2.369v-.16q0-2.09 1.807-3.494 1.807-1.407 5.422-1.407t7.228 1.486q3.614 1.487 7.39 4.057l6.424-9.318a33 33 0 0 0-9.517-5.3q-5.18-1.848-11.365-1.848-4.337 0-7.95 1.205-3.615 1.205-6.225 3.453a15.8 15.8 0 0 0-4.056 5.341q-1.445 3.094-1.445 6.949v.16q0 4.177 1.324 6.988a12.8 12.8 0 0 0 3.736 4.7q2.41 1.887 5.862 3.172 3.454 1.284 7.711 2.329 3.532.885 5.742 1.687 2.21.803 3.453 1.606 1.245.803 1.687 1.728.441.923.442 2.128v.16q0 2.491-2.129 3.896-2.127 1.406-5.983 1.406-4.818 0-8.875-1.848-4.055-1.847-7.91-4.98l-7.308 8.755q5.059 4.578 11.242 6.787 6.186 2.21 12.61 2.21 4.578 0 8.353-1.166 3.775-1.164 6.505-3.373t4.257-5.462 1.526-7.429m23.693 16.627V167.81h-12.369v56.226z" class="fil11"/><circle id="_441858864" cx="554.538" cy="125.001" r="100" style="fill:#028daa"/><path id="_441858480" d="M552.965 147.653h8.27q2.093.001 3.307.176 1.212.176 1.88.56c.745.429 1.264.988 1.556 1.685.298.695.36 1.494.195 2.398q-.245 1.328-.938 2.28c-.46.636-1.083 1.158-1.866 1.576a7.7 7.7 0 0 1-2.174.729c-.797.144-1.984.216-3.57.216h-4.623l-.95 5.172h-3.807zm22.997 3.194h10.122l.165-.863.036-.19.466-2.436h-6.83q-4.718 0-7.328 1.901a7.5 7.5 0 0 0-1.6 1.588h4.969m17.942 0h10.121l.166-.863.036-.19.466-2.436h-6.83q-4.719 0-7.33 1.901a7.5 7.5 0 0 0-1.597 1.588zm-69.717 9.072c-.646 0-1.17.529-1.17 1.183 0 .653.524 1.182 1.17 1.182h4.363c.646 0 1.17-.529 1.17-1.182 0-.654-.524-1.183-1.17-1.183zm3.494-12.253c-.67 0-1.215.53-1.215 1.183 0 .654.544 1.184 1.215 1.184h6.945q-.585.934-.796 2.253-.375 2.345.654 3.266 1.04.919 4.393.918h3.773q1.208 0 1.724.35c.34.23.47.6.39 1.1q-.123.757-.736 1.1-.615.342-1.84.341h-9.213l-.493 3.084h11.28q1.996-.001 3.468-1.286 1.471-1.29 1.8-3.346.343-2.136-.905-3.267-1.243-1.132-3.96-1.132h-3.957q-1.067 0-1.52-.323c-.294-.215-.408-.552-.334-1.011q.12-.753.732-1.048.62-.295 2.503-.295h7.715l.493-3.084h-9.385q-.317 0-.619.013zm-10.697 4.24c-.646 0-1.17.53-1.17 1.184s.524 1.183 1.17 1.183h13.711c.648 0 1.17-.53 1.17-1.183 0-.655-.522-1.184-1.17-1.184zm2.145 4.388c-.646 0-1.17.53-1.17 1.183 0 .654.524 1.184 1.17 1.184h11.067c.646 0 1.17-.53 1.17-1.184s-.524-1.183-1.17-1.183zm-6.533 0c-.646 0-1.17.53-1.17 1.183 0 .654.524 1.184 1.17 1.184h3.217c.646 0 1.17-.53 1.17-1.184s-.524-1.183-1.17-1.183zm5.04 3.625c-.646 0-1.17.529-1.17 1.183 0 .653.524 1.182 1.17 1.182h2.181c.646 0 1.17-.529 1.17-1.182 0-.654-.524-1.183-1.17-1.183zm56.569-6.435 11.373.01-.502 2.629h-11.403c-.24 1.313-.064 2.26.545 2.833q.904.862 3.399.862h6.752l-.502 2.627h-6.952c-1.53 0-2.719-.101-3.557-.301a6.6 6.6 0 0 1-2.274-1.023c-.886-.616-1.482-1.418-1.797-2.406q-.467-1.483-.071-3.546.17-.894.433-1.685zm40.893-3.255h-4.45l-1.724 9.64h4.45q2.553 0 3.704-1.037 1.158-1.034 1.648-3.784.49-2.736-.296-3.779-.78-1.04-3.332-1.04m-7.83-2.576h8.366q4.412 0 6.181 1.865 1.765 1.87 1.064 5.794-.36 2.022-1.325 3.476a7.44 7.44 0 0 1-2.526 2.359 8.9 8.9 0 0 1-2.491 1.003q-1.283.294-3.435.295h-8.478zm-15.121 5.831 11.373.01-.502 2.629h-11.403c-.242 1.313-.063 2.26.544 2.833q.906.862 3.4.862h6.752l-.502 2.627h-6.952q-2.297 0-3.557-.301a6.6 6.6 0 0 1-2.275-1.023c-.886-.616-1.481-1.418-1.796-2.406q-.466-1.483-.072-3.546.17-.894.434-1.685zM560.7 150.29h-4.413l-.803 4.366h4.644q1.727 0 2.665-.539.937-.537 1.14-1.645.218-1.184-.512-1.683-.727-.5-2.721-.499" style="fill:#f8b624;fill-rule:nonzero"/><path id="_438200176" d="M485.998 140.526h25.698a15 15 0 0 0 1.228 0h1.059v-.072c8.238-.837 14.666-7.795 14.666-16.254 0-4.41-1.748-8.412-4.589-11.352a14.62 14.62 0 0 0 4.577-10.638c0-8.093-6.561-14.654-14.654-14.654h-27.967c.308 5.311 4.75 9.526 10.186 9.526h17.781a5.128 5.128 0 0 1 0 10.255h-17.781v-4.74c-5.635 0-10.204 4.529-10.204 10.115zm26.313-22.044a5.718 5.718 0 0 1 1.672 11.187v.338h-18.012v-8.586h.01a3.19 3.19 0 0 1 3.178-2.94h13.152" class="fil9"/><path id="_438200128" d="M534.816 87.556v27.977c0 5.587 4.569 10.115 10.204 10.115V97.671c0-5.586-4.569-10.115-10.204-10.115m10.217 42.082h21.659v.088c5.635 0 10.203 4.529 10.203 10.115H534.83c0-5.586 4.568-10.115 10.203-10.115z" class="fil9"/><path id="_438201256" d="M623.079 87.556h-10.186c.308 5.312 4.75 9.526 10.186 9.526z" style="fill:#f8b624"/><path id="_438199840" d="M623.079 140.139V102.21c-5.635 0-10.203 4.529-10.203 10.114v16.958h-17.782a5.72 5.72 0 0 1-4.045-5.47v-26.14c0-5.587-4.755-10.116-10.622-10.116v36.697h.007c.219 8.26 6.566 14.992 14.66 15.814l1.058.072c8.863.327 18.008 0 26.927 0" class="fil9"/></g></g></svg>